<svg width="24" height="10" xmlns="http://www.w3.org/2000/svg"><path d="M0 .205C.68.088 1.634 0 2.98 0c1.359 0 2.327.264 2.978.795C6.58 1.295 7 2.121 7 3.092c0 .972-.318 1.797-.897 2.357-.752.721-1.865 1.045-3.167 1.045-.29 0-.55-.015-.753-.043V10H0V.205zm4.817 2.947c0-.914-.623-1.46-1.722-1.46-.449 0-.753.046-.912.089v2.932c.189.043.42.058.739.058 1.171 0 1.895-.603 1.895-1.62zM8 9.854V.203C8.846.073 9.948 0 11.11 0c1.934 0 3.187.335 4.17 1.049C16.335 1.807 17 3.016 17 4.752c0 1.88-.71 3.179-1.691 3.98-1.072.86-2.703 1.268-4.696 1.268-1.194 0-2.04-.073-2.613-.146zm3.352-8.148c-.514 0-.846.043-1.042.087v6.428c.197.045.514.045.8.045 2.085.014 3.444-1.094 3.444-3.44.015-2.041-1.224-3.12-3.202-3.12zM23.753 4.14v1.839h-3.525V10H18V0h6v1.854h-3.772v2.285z" fill="#E2322A" fill-rule="evenodd"/></svg>