<?xml version="1.0" encoding="UTF-8"?>
<svg width="22px" height="21px" viewBox="0 0 22 21" version="1.1" xmlns="http://www.w3.org/2000/svg" xmlns:xlink="http://www.w3.org/1999/xlink">
    <!-- Generator: Sketch 46.2 (44496) - http://www.bohemiancoding.com/sketch -->
    <title>filer-closed</title>
    <desc>Created with Sketch.</desc>
    <defs></defs>
    <g id="Trading" stroke="none" stroke-width="1" fill="none" fill-rule="evenodd">
        <g id="trading_tablet_24-01" transform="translate(-707.000000, -168.000000)" fill="#222026">
            <g id="menu-1" transform="translate(-63.000000, 152.000000)">
                <g id="btn-filter" transform="translate(755.000000, 0.000000)">
                    <path d="M29.9645556,26 L37,26 L37,27 L29.9645556,27 C29.7219407,28.6961471 28.263236,30 26.5,30 C24.736764,30 23.2780593,28.6961471 23.0354444,27 L16,27 L16,26 L23.0354444,26 C23.2780593,24.3038529 24.736764,23 26.5,23 C28.263236,23 29.7219407,24.3038529 29.9645556,26 Z M30.0354444,33 C30.2780593,31.3038529 31.736764,30 33.5,30 C35.4329966,30 37,31.5670034 37,33.5 C37,35.4329966 35.4329966,37 33.5,37 C31.736764,37 30.2780593,35.6961471 30.0354444,34 L16,34 L16,33 L30.0354444,33 Z M21.9645556,19 L37,19 L37,20 L21.9645556,20 C21.7219407,21.6961471 20.263236,23 18.5,23 C16.5670034,23 15,21.4329966 15,19.5 C15,17.5670034 16.5670034,16 18.5,16 C20.263236,16 21.7219407,17.3038529 21.9645556,19 Z M18.5,22 C19.8807119,22 21,20.8807119 21,19.5 C21,18.1192881 19.8807119,17 18.5,17 C17.1192881,17 16,18.1192881 16,19.5 C16,20.8807119 17.1192881,22 18.5,22 Z M33.5,36 C34.8807119,36 36,34.8807119 36,33.5 C36,32.1192881 34.8807119,31 33.5,31 C32.1192881,31 31,32.1192881 31,33.5 C31,34.8807119 32.1192881,36 33.5,36 Z M26.5,29 C27.8807119,29 29,27.8807119 29,26.5 C29,25.1192881 27.8807119,24 26.5,24 C25.1192881,24 24,25.1192881 24,26.5 C24,27.8807119 25.1192881,29 26.5,29 Z" id="filer-closed"></path>
                </g>
            </g>
        </g>
    </g>
</svg>