<?xml version="1.0" encoding="UTF-8"?>
<svg width="24px" height="10px" viewBox="0 0 24 10" version="1.1" xmlns="http://www.w3.org/2000/svg" xmlns:xlink="http://www.w3.org/1999/xlink">
    <!-- Generator: Sketch 46.2 (44496) - http://www.bohemiancoding.com/sketch -->
    <title>pdf</title>
    <desc>Created with Sketch.</desc>
    <defs></defs>
    <g id="Trading" stroke="none" stroke-width="1" fill="none" fill-rule="evenodd">
        <g id="trading_white_23-01" transform="translate(-265.000000, -1621.000000)" fill="#E2322A">
            <g id="archive" transform="translate(265.000000, 1548.000000)">
                <g id="pdf" transform="translate(0.000000, 73.000000)">
                    <path d="M0,0.20499475 C0.679252534,0.0881157832 1.63401707,0 2.97918368,0 C4.33858545,0 5.30747306,0.26423321 5.95847945,0.794982422 C6.58034299,1.29514222 7,2.12071406 7,3.09227047 C7,4.06359859 6.68200669,4.88939871 6.10340907,5.44879697 C5.35085107,6.17015934 4.23793054,6.49397343 2.93602985,6.49397343 C2.64628269,6.49397343 2.38657507,6.47936356 2.18347184,6.45071451 L2.18347184,10 L0,10 L0,0.20499475 Z M4.81652816,3.15150893 C4.81652816,2.23759302 4.19376791,1.69257636 3.09497046,1.69257636 C2.64628269,1.69257636 2.34241245,1.73766151 2.18347184,1.78080628 L2.18347184,4.71305301 C2.37166739,4.75619778 2.60301677,4.77057937 2.92190677,4.77057937 C4.093113,4.77057937 4.81652816,4.16803634 4.81652816,3.15150893 Z" id="Combined-Shape"></path>
                    <path d="M8,9.85413913 L8,0.202917217 C8.84555668,0.0729869279 9.94764766,0 11.1107123,0 C13.043614,0 14.2970274,0.334768216 15.2791605,1.04870691 C16.3360771,1.80727384 17,3.01641641 17,4.75239806 C17,6.63277181 16.2907857,7.93094488 15.3085355,8.73210634 C14.2368729,9.59213187 12.6055629,10 10.6126239,10 C9.41913084,10 8.57357416,9.92701307 8,9.85413913 Z M11.3522665,1.70581523 C10.8384957,1.70581523 10.5064758,1.74863573 10.310096,1.793038 L10.310096,8.22131083 C10.5065928,8.26582607 10.8238667,8.26582607 11.1107123,8.26582607 C13.1949364,8.28006191 14.5542639,7.17249093 14.5542639,4.82561095 C14.5690099,2.78480155 13.3303425,1.70581523 11.3522665,1.70581523 Z" id="Combined-Shape"></path>
                    <polygon id="Path" points="23.7528217 4.13920383 23.7528217 5.97854334 20.227991 5.97854334 20.227991 10 18 10 18 0 24 0 24 1.85382793 20.227991 1.85382793 20.227991 4.13920383"></polygon>
                </g>
            </g>
        </g>
    </g>
</svg>