<?xml version="1.0" encoding="UTF-8"?>
<svg width="16px" height="16px" viewBox="0 0 16 16" version="1.1" xmlns="http://www.w3.org/2000/svg" xmlns:xlink="http://www.w3.org/1999/xlink">
    <!-- Generator: Sketch 46.2 (44496) - http://www.bohemiancoding.com/sketch -->
    <title>Shape</title>
    <desc>Created with Sketch.</desc>
    <defs></defs>
    <g id="Trading" stroke="none" stroke-width="1" fill="none" fill-rule="evenodd">
        <g id="trading_white_23-01" transform="translate(-132.000000, -397.000000)" fill-rule="nonzero" fill="#222026">
            <g id="filter" transform="translate(85.000000, 363.000000)">
                <path d="M61.9451642,48.8636735 L58.3076841,45.0171429 C59.2093345,43.8546939 59.752795,42.3657143 59.752795,40.7428571 C59.752795,37.0204082 56.8965395,34 53.3763975,34 C49.8531677,34 47,37.0204082 47,40.7428571 C47,44.4653061 49.8531677,47.4857143 53.3763975,47.4857143 C54.9110559,47.4857143 56.3160248,46.9142857 57.4152972,45.9608163 L61.0527773,49.8040816 C61.2998048,50.0653061 61.6981366,50.0653061 61.9451642,49.8040816 C62.1921917,49.5461224 62.1921917,49.1216327 61.9451642,48.8636735 Z M53.3763975,46.1436735 C50.5571961,46.1436735 48.266016,43.7208163 48.266016,40.7428571 C48.266016,37.764898 50.5571961,35.3387755 53.3763975,35.3387755 C56.1925111,35.3387755 58.4867791,37.764898 58.4867791,40.7428571 C58.4867791,43.7208163 56.1925111,46.1436735 53.3763975,46.1436735 Z" id="Shape"></path>
            </g>
        </g>
    </g>
</svg>
